# xmcd
#
# Track frame offsets:
#  150
#  15612
#  32872
#  49647
#  69360
#  85385
#  100695
#  118112
#  132517
#  154684
#
# Disc length: 2293 seconds
#
# Revision: 3
# Processed by: cddbd v1.5.1PL2 Copyright (c) Steve Scherf et al.
# Submitted via: Collectorz.com_Music_Collector 6.9
#
DISCID=7d08f30a
DTITLE=Various Artist - Country's Big Ten
DYEAR=1998
DGENRE=Country
TTITLE0=Vince Gill - High Lonesome Sound
TTITLE1=George Strait - One Night At A Time
TTITLE2=Trisha Yearwood - Believe Me Baby (I Lied)
TTITLE3=The Mavericks - Dance The Night Away
TTITLE4=Lee Ann Womack - The Fool
TTITLE5=Tracy Byrd - I Wanna Feel That Way Again
TTITLE6=Danni Leigh - 29 Nights
TTITLE7=Keith Harling - Write It In Stone
TTITLE8=Gary Allan - No Judgement Day
TTITLE9=Shane Stockton - Stories I Could Tell
EXTD=
EXTT0=
EXTT1=
EXTT2=
EXTT3=
EXTT4=
EXTT5=
EXTT6=
EXTT7=
EXTT8=
EXTT9=
PLAYORDER=
